<?xml version="1.0" encoding="UTF-8"?> <svg xmlns="http://www.w3.org/2000/svg" xmlns:xlink="http://www.w3.org/1999/xlink" id="Layer_1" data-name="Layer 1" viewBox="0 0 277.47 49"><defs><style>.cls-1{fill:#0f87c9;}.cls-2{fill:#61bd66;}.cls-3{fill:url(#linear-gradient);}.cls-4{fill:url(#linear-gradient-2);}</style><linearGradient id="linear-gradient" x1="28.84" y1="49.4" x2="28.84" y2="0.39" gradientUnits="userSpaceOnUse"><stop offset="0" stop-color="#61bd66"></stop><stop offset="0.01" stop-color="#5fbc68"></stop><stop offset="0.36" stop-color="#1b96b0"></stop><stop offset="0.52" stop-color="#0087cd"></stop><stop offset="1" stop-color="#0087cd"></stop></linearGradient><linearGradient id="linear-gradient-2" x1="28.89" y1="48.52" x2="28.89" y2="27.17" xlink:href="#linear-gradient"></linearGradient></defs><title>Logo ngang</title><path class="cls-1" d="M81.24,25.85a2.06,2.06,0,0,0-2.77,0,1.79,1.79,0,0,0-.6,1.35V35H67.14V27.21a1.77,1.77,0,0,0-.58-1.34,1.85,1.85,0,0,0-1.35-.55,1.91,1.91,0,0,0-1.41.55,1.87,1.87,0,0,0-.55,1.34V46.64A1.93,1.93,0,0,0,63.78,48a1.88,1.88,0,0,0,1.4.56A2,2,0,0,0,66.55,48a1.83,1.83,0,0,0,.59-1.38v-8H77.87v8a1.93,1.93,0,0,0,1.93,1.93A1.91,1.91,0,0,0,81.21,48a2,2,0,0,0,.59-1.37V27.21a1.83,1.83,0,0,0-.56-1.36Z" transform="translate(-1.1 -0.39)"></path><path class="cls-1" d="M98.32,31.77a9.14,9.14,0,0,0-8.95,0,8.53,8.53,0,0,0-3.21,3.29A9.58,9.58,0,0,0,85,39.78a9.4,9.4,0,0,0,1.17,4.68,8.56,8.56,0,0,0,3.21,3.25,9.08,9.08,0,0,0,8.95,0,8.56,8.56,0,0,0,3.21-3.25,9.4,9.4,0,0,0,1.17-4.68,9.58,9.58,0,0,0-1.17-4.72A8.53,8.53,0,0,0,98.32,31.77Zm-1.9,12.87a5.06,5.06,0,0,1-5.15,0,5.15,5.15,0,0,1-1.84-2,6.1,6.1,0,0,1-.68-2.89,6.18,6.18,0,0,1,.69-3,5.11,5.11,0,0,1,1.83-2,5.09,5.09,0,0,1,5.15,0,5.11,5.11,0,0,1,1.83,2,6.18,6.18,0,0,1,.69,3,6,6,0,0,1-.69,2.89A5,5,0,0,1,96.42,44.64Z" transform="translate(-1.1 -0.39)"></path><path class="cls-1" d="M125.25,30.7a6.47,6.47,0,0,0-3.67,1.15,7.77,7.77,0,0,0-2.09,2,5.26,5.26,0,0,0-5.26-3.11,6.09,6.09,0,0,0-3.22.9A7.59,7.59,0,0,0,109.3,33v-.11a1.89,1.89,0,0,0-.53-1.34A1.84,1.84,0,0,0,107.4,31a1.8,1.8,0,0,0-1.33.56,1.89,1.89,0,0,0-.53,1.34V46.67a1.84,1.84,0,0,0,.52,1.35,1.79,1.79,0,0,0,1.34.55,1.84,1.84,0,0,0,1.37-.56,1.89,1.89,0,0,0,.53-1.34v-8.6a3.61,3.61,0,0,1,1.14-2.73,3.91,3.91,0,0,1,2.89-1.11,2.69,2.69,0,0,1,2.39,1,4.88,4.88,0,0,1,.74,2.84v8.6A1.84,1.84,0,0,0,117,48a1.79,1.79,0,0,0,1.34.55,1.84,1.84,0,0,0,1.37-.56,1.89,1.89,0,0,0,.53-1.34V38.1a3.75,3.75,0,0,1,.52-2,3.8,3.8,0,0,1,1.44-1.4,4.33,4.33,0,0,1,2.1-.52c2.15,0,3.19,1.27,3.19,3.87v8.57A1.86,1.86,0,0,0,128,48a1.93,1.93,0,0,0,2.71,0,1.88,1.88,0,0,0,.52-1.35v-8.6C131.24,33.18,129.22,30.7,125.25,30.7Z" transform="translate(-1.1 -0.39)"></path><path class="cls-1" d="M146.43,31.71a8,8,0,0,0-8.14,0A8.44,8.44,0,0,0,135.23,35a10.24,10.24,0,0,0-1.15,4.92,9.5,9.5,0,0,0,1.12,4.61,8,8,0,0,0,3.2,3.2,9.74,9.74,0,0,0,4.76,1.14,8.64,8.64,0,0,0,3.29-.67A8,8,0,0,0,149,46.58a1.92,1.92,0,0,0,.77-1.49,1.59,1.59,0,0,0-.47-1.14,1.72,1.72,0,0,0-2.35-.11,5.86,5.86,0,0,1-1.61,1.09,5.6,5.6,0,0,1-2.36.42,5.11,5.11,0,0,1-5.21-4.48h10.94a1.93,1.93,0,0,0,1.3-.49,1.76,1.76,0,0,0,.6-1.25,8.8,8.8,0,0,0-1.18-4.36A8.52,8.52,0,0,0,146.43,31.71Zm.23,5.88H138a4.42,4.42,0,0,1,1.51-2.51,4.65,4.65,0,0,1,2.91-.94,4.52,4.52,0,0,1,2.89,1A3.57,3.57,0,0,1,146.66,37.59Z" transform="translate(-1.1 -0.39)"></path><path class="cls-2" d="M171.36,44.05a8,8,0,0,1-4.14,1.11,8.32,8.32,0,0,1-4-1,7.07,7.07,0,0,1-2.8-2.81,9.22,9.22,0,0,1-1-4.44,8.89,8.89,0,0,1,1-4.23,7.16,7.16,0,0,1,2.75-2.84,8.16,8.16,0,0,1,4.09-1,8.33,8.33,0,0,1,4.15,1.09,2.15,2.15,0,0,0,1,.27,1.58,1.58,0,0,0,1.34-.65,2.05,2.05,0,0,0,.46-1.28,1.73,1.73,0,0,0-1-1.6,12.2,12.2,0,0,0-6-1.59,12,12,0,0,0-6.05,1.55,11.19,11.19,0,0,0-4.25,4.25,12,12,0,0,0-1.55,6A12.27,12.27,0,0,0,157,43.3a10.86,10.86,0,0,0,4.32,4.16,12.56,12.56,0,0,0,9.08,1,12.82,12.82,0,0,0,2.9-1.16,1.9,1.9,0,0,0,.69-.66,1.72,1.72,0,0,0,.26-.91,1.93,1.93,0,0,0-.46-1.24A1.91,1.91,0,0,0,171.36,44.05Z" transform="translate(-1.1 -0.39)"></path><path class="cls-2" d="M189.13,31.77a9.16,9.16,0,0,0-9,0,8.58,8.58,0,0,0-3.2,3.29,9.58,9.58,0,0,0-1.18,4.72A9.4,9.4,0,0,0,177,44.46a8.61,8.61,0,0,0,3.2,3.25,9.09,9.09,0,0,0,9,0,8.61,8.61,0,0,0,3.2-3.25,9.4,9.4,0,0,0,1.17-4.68,9.58,9.58,0,0,0-1.17-4.72A8.65,8.65,0,0,0,189.13,31.77Zm-1.91,12.88a5.06,5.06,0,0,1-5.14,0,5,5,0,0,1-1.84-2,6.1,6.1,0,0,1-.68-2.89,6.29,6.29,0,0,1,.68-3,5.06,5.06,0,0,1,1.84-2,5.07,5.07,0,0,1,5.14,0,5.06,5.06,0,0,1,1.84,2,6.29,6.29,0,0,1,.68,3,6.1,6.1,0,0,1-.68,2.89A5.1,5.1,0,0,1,187.22,44.65Z" transform="translate(-1.1 -0.39)"></path><path class="cls-2" d="M205.3,30.6a6.58,6.58,0,0,0-3.39.93,7.89,7.89,0,0,0-1.8,1.45v-.1a1.86,1.86,0,0,0-.54-1.34,1.8,1.8,0,0,0-1.36-.56,1.78,1.78,0,0,0-1.33.56,1.86,1.86,0,0,0-.54,1.34V46.67a1.88,1.88,0,0,0,.52,1.35,1.93,1.93,0,0,0,2.71,0,1.86,1.86,0,0,0,.54-1.34V37.94a3.49,3.49,0,0,1,.54-1.89,3.9,3.9,0,0,1,1.51-1.39,4.46,4.46,0,0,1,2.17-.52,3,3,0,0,1,2.56,1,4.49,4.49,0,0,1,.79,2.81v8.73a1.89,1.89,0,0,0,.53,1.34,1.91,1.91,0,0,0,2.7,0,1.85,1.85,0,0,0,.53-1.34V37.91C211.44,33.06,209.38,30.6,205.3,30.6Z" transform="translate(-1.1 -0.39)"></path><path class="cls-2" d="M224.27,30.6a6.58,6.58,0,0,0-3.39.93,7.89,7.89,0,0,0-1.8,1.45v-.1a1.86,1.86,0,0,0-.54-1.34,1.9,1.9,0,0,0-2.69,0,1.89,1.89,0,0,0-.53,1.34V46.67a1.87,1.87,0,0,0,.51,1.35,1.93,1.93,0,0,0,2.71,0,1.86,1.86,0,0,0,.54-1.34V37.94a3.49,3.49,0,0,1,.54-1.89,3.9,3.9,0,0,1,1.51-1.39,4.46,4.46,0,0,1,2.17-.52,3,3,0,0,1,2.56,1,4.49,4.49,0,0,1,.79,2.81v8.73a1.86,1.86,0,0,0,.54,1.34,1.77,1.77,0,0,0,1.33.56,1.8,1.8,0,0,0,1.36-.56,1.86,1.86,0,0,0,.54-1.34V37.91C230.42,33.06,228.35,30.6,224.27,30.6Z" transform="translate(-1.1 -0.39)"></path><path class="cls-2" d="M245.6,31.71a7.91,7.91,0,0,0-8.13,0A8.44,8.44,0,0,0,234.41,35a10.13,10.13,0,0,0-1.15,4.92,9.39,9.39,0,0,0,1.12,4.61,8,8,0,0,0,3.2,3.2,9.74,9.74,0,0,0,4.76,1.14,8.64,8.64,0,0,0,3.29-.67,8.13,8.13,0,0,0,2.57-1.64,1.92,1.92,0,0,0,.77-1.49A1.59,1.59,0,0,0,248.5,44a1.72,1.72,0,0,0-2.35-.11,5.86,5.86,0,0,1-1.61,1.09,5.62,5.62,0,0,1-2.37.42,5.09,5.09,0,0,1-5.2-4.48h10.94a1.9,1.9,0,0,0,1.29-.49h0a1.73,1.73,0,0,0,.59-1.25,8.69,8.69,0,0,0-1.17-4.36A8.47,8.47,0,0,0,245.6,31.71Zm-4,2.43a4.49,4.49,0,0,1,2.89,1,3.59,3.59,0,0,1,1.39,2.44h-8.7a4.37,4.37,0,0,1,1.51-2.51A4.65,4.65,0,0,1,241.56,34.14Z" transform="translate(-1.1 -0.39)"></path><path class="cls-2" d="M265,43.9a1.67,1.67,0,0,0-.76.17,4.84,4.84,0,0,0-.61.42,5.07,5.07,0,0,1-.56.38,5.71,5.71,0,0,1-2.55.48,5,5,0,0,1-2.68-.72,4.93,4.93,0,0,1-1.82-2,6.32,6.32,0,0,1-.65-2.9,6.14,6.14,0,0,1,.67-2.88,4.92,4.92,0,0,1,1.86-2,5.33,5.33,0,0,1,2.78-.72,7.17,7.17,0,0,1,1.23.12,4.28,4.28,0,0,1,1,.27,3.86,3.86,0,0,1,.6.44,7.48,7.48,0,0,0,.69.45,1.83,1.83,0,0,0,.83.17,1.46,1.46,0,0,0,1.17-.57,1.85,1.85,0,0,0,.44-1.2c0-1-.64-1.78-1.89-2.38a10.2,10.2,0,0,0-4.39-.84,8.68,8.68,0,0,0-4.53,1.19,8.26,8.26,0,0,0-3.09,3.3,9.85,9.85,0,0,0-1.1,4.65,10.16,10.16,0,0,0,1,4.65,8,8,0,0,0,3,3.3,8.44,8.44,0,0,0,4.5,1.2,11.56,11.56,0,0,0,3.17-.43,7.51,7.51,0,0,0,2.41-1.14,2.14,2.14,0,0,0,1-1.62,1.82,1.82,0,0,0-.47-1.28A1.65,1.65,0,0,0,265,43.9Z" transform="translate(-1.1 -0.39)"></path><path class="cls-2" d="M276.8,45a2.91,2.91,0,0,0-.71.13,2,2,0,0,1-.51.1c-.55,0-1.1-.15-1.1-1.26V34.68h2.32a1.77,1.77,0,0,0,1.26-.48,1.67,1.67,0,0,0,.51-1.25,1.73,1.73,0,0,0-1.77-1.77h-2.32V28.82a1.86,1.86,0,0,0-.54-1.34,1.76,1.76,0,0,0-1.33-.55,1.8,1.8,0,0,0-1.36.56,1.85,1.85,0,0,0-.53,1.33v2.36H269.2a1.77,1.77,0,0,0-1.26.48,1.67,1.67,0,0,0-.51,1.25,1.73,1.73,0,0,0,1.77,1.77h1.52v9.38a4.91,4.91,0,0,0,.76,3,3.25,3.25,0,0,0,1.77,1.27,8.15,8.15,0,0,0,2,.24,3.63,3.63,0,0,0,1.92-.54,1.7,1.7,0,0,0,.57-2.58A1.24,1.24,0,0,0,276.8,45Z" transform="translate(-1.1 -0.39)"></path><path class="cls-3" d="M28.86.43v0l0,0v0L1.1,28.41H8.41V45.55s1.66,3.57,7.22,3.83a7.09,7.09,0,0,0,7-4V28.81a3.27,3.27,0,1,0-2.61.08V44.16s-3.91,4.87-8.78,0V25H9.11L28.87,5,48.58,25H46.49V44.16c-4.87,4.87-8.79,0-8.79,0V28.91a3.3,3.3,0,1,0-2.61-.13v16.6a7.09,7.09,0,0,0,7,4c5.57-.26,7-3.83,7-3.83V28.41h7.57Z" transform="translate(-1.1 -0.39)"></path><path class="cls-4" d="M28.89,27.17a3.27,3.27,0,0,0-1.37,6.25v15.1h2.7V33.45a3.28,3.28,0,0,0-1.33-6.28Z" transform="translate(-1.1 -0.39)"></path></svg> 