<?xml version="1.0" encoding="UTF-8"?> <svg xmlns="http://www.w3.org/2000/svg" xmlns:xlink="http://www.w3.org/1999/xlink" id="Layer_1" data-name="Layer 1" viewBox="0 0 155.77 98.11"><defs><style>.cls-1{fill:#0f87c9;}.cls-2{fill:#61bd66;}.cls-3{fill:url(#linear-gradient);}.cls-4{fill:url(#linear-gradient-2);}</style><linearGradient id="linear-gradient" x1="77.95" y1="68.19" x2="77.95" y2="0.39" gradientUnits="userSpaceOnUse"><stop offset="0" stop-color="#61bd66"></stop><stop offset="0.01" stop-color="#5fbc68"></stop><stop offset="0.36" stop-color="#1b96b0"></stop><stop offset="0.52" stop-color="#0087cd"></stop><stop offset="1" stop-color="#0087cd"></stop></linearGradient><linearGradient id="linear-gradient-2" x1="78.03" y1="66.99" x2="78.03" y2="37.44" xlink:href="#linear-gradient"></linearGradient></defs><title>Logo doc</title><path class="cls-1" d="M13.08,81.83a1.49,1.49,0,0,0-2,0,1.29,1.29,0,0,0-.43,1v5.62H2.88V82.82a1.31,1.31,0,0,0-.41-1,1.37,1.37,0,0,0-1-.4,1.36,1.36,0,0,0-1,.4,1.3,1.3,0,0,0-.4,1V96.87a1.39,1.39,0,0,0,.38,1,1.35,1.35,0,0,0,1,.41,1.42,1.42,0,0,0,1-.4,1.29,1.29,0,0,0,.43-1V91.09h7.77v5.78a1.36,1.36,0,0,0,.41,1,1.38,1.38,0,0,0,1,.4,1.4,1.4,0,0,0,1-.4,1.5,1.5,0,0,0,.43-1V82.82a1.32,1.32,0,0,0-.41-1Z" transform="translate(-0.07 -0.39)"></path><path class="cls-1" d="M25.44,86.12a6.6,6.6,0,0,0-6.48,0,6.17,6.17,0,0,0-2.32,2.38,7,7,0,0,0-.84,3.41,6.75,6.75,0,0,0,.85,3.39A6.21,6.21,0,0,0,19,97.65a6.6,6.6,0,0,0,6.48,0,6.16,6.16,0,0,0,2.32-2.35,6.85,6.85,0,0,0,.85-3.39,7,7,0,0,0-.85-3.41A6,6,0,0,0,25.44,86.12Zm-1.38,9.31a3.65,3.65,0,0,1-3.72,0A3.75,3.75,0,0,1,19,94a4.33,4.33,0,0,1-.49-2.09A4.46,4.46,0,0,1,19,89.78a3.71,3.71,0,0,1,1.33-1.44,3.65,3.65,0,0,1,3.72,0,3.56,3.56,0,0,1,1.33,1.44,4.47,4.47,0,0,1,.5,2.13,4.33,4.33,0,0,1-.5,2.09A3.6,3.6,0,0,1,24.06,95.43Z" transform="translate(-0.07 -0.39)"></path><path class="cls-1" d="M44.92,85.34a4.79,4.79,0,0,0-2.66.83,5.92,5.92,0,0,0-1.51,1.42A3.79,3.79,0,0,0,37,85.34a4.45,4.45,0,0,0-2.33.65,5.58,5.58,0,0,0-1.23,1v-.08A1.36,1.36,0,0,0,33,86a1.31,1.31,0,0,0-1-.4,1.28,1.28,0,0,0-1,.4,1.34,1.34,0,0,0-.39,1v10a1.33,1.33,0,0,0,.38,1,1.3,1.3,0,0,0,1,.4,1.32,1.32,0,0,0,1-.41,1.37,1.37,0,0,0,.39-1V90.67a2.59,2.59,0,0,1,.82-2,2.83,2.83,0,0,1,2.09-.8,1.94,1.94,0,0,1,1.73.72,3.54,3.54,0,0,1,.53,2v6.22a1.33,1.33,0,0,0,.38,1,1.3,1.3,0,0,0,1,.4,1.32,1.32,0,0,0,1-.41,1.36,1.36,0,0,0,.38-1V90.7a2.77,2.77,0,0,1,1.42-2.43,3.08,3.08,0,0,1,1.52-.37c1.56,0,2.31.91,2.31,2.8v6.19a1.33,1.33,0,0,0,.39,1,1.39,1.39,0,0,0,2,0,1.33,1.33,0,0,0,.37-1V90.67C49.25,87.13,47.8,85.34,44.92,85.34Z" transform="translate(-0.07 -0.39)"></path><path class="cls-1" d="M60.24,86.07a5.74,5.74,0,0,0-5.88,0,6.06,6.06,0,0,0-2.22,2.37A7.39,7.39,0,0,0,51.31,92a6.82,6.82,0,0,0,.81,3.34,5.8,5.8,0,0,0,2.31,2.32,7.12,7.12,0,0,0,3.45.82A6.07,6.07,0,0,0,60.26,98a5.72,5.72,0,0,0,1.86-1.18,1.4,1.4,0,0,0,.56-1.08,1.21,1.21,0,0,0-.34-.83,1.25,1.25,0,0,0-1.7-.07,4.54,4.54,0,0,1-1.17.79,4.1,4.1,0,0,1-1.71.3A3.69,3.69,0,0,1,54,92.7h7.92a1.37,1.37,0,0,0,.94-.36,1.29,1.29,0,0,0,.43-.9,6.38,6.38,0,0,0-.85-3.16A6.11,6.11,0,0,0,60.24,86.07Zm.17,4.26H54.12a3.17,3.17,0,0,1,1.09-1.82,3.4,3.4,0,0,1,2.11-.68,3.32,3.32,0,0,1,2.09.73A2.58,2.58,0,0,1,60.41,90.33Z" transform="translate(-0.07 -0.39)"></path><path class="cls-2" d="M78.28,95a5.74,5.74,0,0,1-3,.8,6.11,6.11,0,0,1-2.91-.7,5.12,5.12,0,0,1-2-2,6.59,6.59,0,0,1-.74-3.21,6.32,6.32,0,0,1,.72-3.06,5.13,5.13,0,0,1,2-2.06,5.83,5.83,0,0,1,3-.73,6,6,0,0,1,3,.78A1.55,1.55,0,0,0,79,85a1.17,1.17,0,0,0,1-.46,1.47,1.47,0,0,0,.33-.93,1.24,1.24,0,0,0-.69-1.15,8.95,8.95,0,0,0-8.74,0,8.2,8.2,0,0,0-3.08,3.08,8.72,8.72,0,0,0-1.11,4.38,8.93,8.93,0,0,0,1.16,4.6,7.94,7.94,0,0,0,3.13,3,9.12,9.12,0,0,0,6.57.72,9,9,0,0,0,2.09-.84,1.35,1.35,0,0,0,.51-.47,1.32,1.32,0,0,0,.19-.66,1.42,1.42,0,0,0-.34-.9A1.37,1.37,0,0,0,78.28,95Z" transform="translate(-0.07 -0.39)"></path><path class="cls-2" d="M91.13,86.12a6.58,6.58,0,0,0-6.47,0,6,6,0,0,0-2.32,2.38,6.85,6.85,0,0,0-.85,3.41,6.75,6.75,0,0,0,.85,3.39,6.16,6.16,0,0,0,2.32,2.35,6.58,6.58,0,0,0,6.47,0,6.16,6.16,0,0,0,2.32-2.35,7.22,7.22,0,0,0,0-6.8A6.1,6.1,0,0,0,91.13,86.12Zm-1.38,9.31a3.65,3.65,0,0,1-3.72,0A3.75,3.75,0,0,1,84.7,94a4.45,4.45,0,0,1-.49-2.09,4.58,4.58,0,0,1,.49-2.13A3.71,3.71,0,0,1,86,88.34a3.54,3.54,0,0,1,1.86-.51,3.49,3.49,0,0,1,1.86.51,3.56,3.56,0,0,1,1.33,1.44,4.47,4.47,0,0,1,.5,2.13,4.33,4.33,0,0,1-.5,2.09A3.6,3.6,0,0,1,89.75,95.43Z" transform="translate(-0.07 -0.39)"></path><path class="cls-2" d="M102.83,85.27a4.85,4.85,0,0,0-2.45.67,6.22,6.22,0,0,0-1.3,1v-.07a1.34,1.34,0,0,0-.39-1,1.31,1.31,0,0,0-1-.4,1.28,1.28,0,0,0-1,.4,1.39,1.39,0,0,0-.38,1v10a1.33,1.33,0,0,0,.37,1,1.3,1.3,0,0,0,1,.4,1.37,1.37,0,0,0,1.38-1.38V90.58a2.56,2.56,0,0,1,.39-1.37,3,3,0,0,1,1.09-1,3.31,3.31,0,0,1,1.57-.37,2.18,2.18,0,0,1,1.85.71,3.32,3.32,0,0,1,.58,2v6.31a1.36,1.36,0,0,0,.38,1,1.36,1.36,0,0,0,2,0,1.33,1.33,0,0,0,.39-1V90.56C107.28,87.05,105.78,85.27,102.83,85.27Z" transform="translate(-0.07 -0.39)"></path><path class="cls-2" d="M116.56,85.27a4.83,4.83,0,0,0-2.45.67,6,6,0,0,0-1.31,1v-.07a1.38,1.38,0,0,0-.38-1,1.31,1.31,0,0,0-1-.4,1.28,1.28,0,0,0-1,.4,1.36,1.36,0,0,0-.39,1v10a1.33,1.33,0,0,0,.38,1,1.29,1.29,0,0,0,1,.4,1.32,1.32,0,0,0,1-.41,1.36,1.36,0,0,0,.38-1V90.58a2.56,2.56,0,0,1,.39-1.37,3,3,0,0,1,1.1-1,3.25,3.25,0,0,1,1.57-.37,2.19,2.19,0,0,1,1.85.71,3.31,3.31,0,0,1,.57,2v6.31a1.33,1.33,0,0,0,.39,1,1.28,1.28,0,0,0,1,.41A1.35,1.35,0,0,0,121,96.89V90.56C121,87.05,119.51,85.27,116.56,85.27Z" transform="translate(-0.07 -0.39)"></path><path class="cls-2" d="M132,86.07a5.74,5.74,0,0,0-5.88,0,6.06,6.06,0,0,0-2.22,2.37,7.39,7.39,0,0,0-.83,3.55,6.82,6.82,0,0,0,.81,3.34,5.8,5.8,0,0,0,2.31,2.32,7.12,7.12,0,0,0,3.45.82A6,6,0,0,0,132,98a5.72,5.72,0,0,0,1.86-1.18,1.38,1.38,0,0,0,.56-1.08,1.21,1.21,0,0,0-.34-.83,1.25,1.25,0,0,0-1.7-.07,4.54,4.54,0,0,1-1.17.79,4.1,4.1,0,0,1-1.71.3,3.71,3.71,0,0,1-2.59-1,3.77,3.77,0,0,1-1.18-2.28h7.92a1.37,1.37,0,0,0,.94-.36h0a1.25,1.25,0,0,0,.43-.9,6.38,6.38,0,0,0-.85-3.16A6.11,6.11,0,0,0,132,86.07Zm-2.92,1.76a3.27,3.27,0,0,1,2.09.73,2.58,2.58,0,0,1,1,1.77h-6.29A3.22,3.22,0,0,1,127,88.51,3.4,3.4,0,0,1,129.07,87.83Z" transform="translate(-0.07 -0.39)"></path><path class="cls-2" d="M146,94.89a1.09,1.09,0,0,0-.55.13,2.88,2.88,0,0,0-.44.3c-.17.13-.31.22-.4.28a4.33,4.33,0,0,1-1.85.34,3.64,3.64,0,0,1-1.94-.52A3.58,3.58,0,0,1,139.54,94a4.75,4.75,0,0,1,0-4.18,3.57,3.57,0,0,1,1.35-1.45,3.81,3.81,0,0,1,2-.52,5.06,5.06,0,0,1,.89.09,2.62,2.62,0,0,1,.7.2,2.7,2.7,0,0,1,.43.31,4.2,4.2,0,0,0,.5.32,1.21,1.21,0,0,0,.6.13,1.06,1.06,0,0,0,.85-.41,1.36,1.36,0,0,0,.32-.87c0-.71-.46-1.29-1.37-1.72a7.33,7.33,0,0,0-3.18-.61,6.26,6.26,0,0,0-3.27.86,6,6,0,0,0-2.24,2.39,7.09,7.09,0,0,0-.8,3.36,7.46,7.46,0,0,0,.76,3.37,5.83,5.83,0,0,0,2.18,2.38,6.09,6.09,0,0,0,3.26.87,8.45,8.45,0,0,0,2.29-.31,5.13,5.13,0,0,0,1.74-.83,1.51,1.51,0,0,0,.72-1.16,1.29,1.29,0,0,0-.34-.93A1.2,1.2,0,0,0,146,94.89Z" transform="translate(-0.07 -0.39)"></path><path class="cls-2" d="M154.56,95.66a2,2,0,0,0-.51.09,1.38,1.38,0,0,1-.37.07c-.4,0-.8-.1-.8-.91V88.22h1.68a1.24,1.24,0,0,0,.91-.35,1.18,1.18,0,0,0,.37-.9,1.27,1.27,0,0,0-.36-.92,1.28,1.28,0,0,0-.92-.36h-1.68V84a1.36,1.36,0,0,0-.38-1,1.31,1.31,0,0,0-1-.41,1.34,1.34,0,0,0-1,.41,1.36,1.36,0,0,0-.38,1v1.7h-1.1a1.28,1.28,0,0,0-.91.35,1.21,1.21,0,0,0-.37.9,1.26,1.26,0,0,0,.37.92,1.24,1.24,0,0,0,.91.36h1.1V95a3.58,3.58,0,0,0,.55,2.17,2.44,2.44,0,0,0,1.28.92,6.26,6.26,0,0,0,1.48.17,2.56,2.56,0,0,0,1.39-.39,1.23,1.23,0,0,0,.41-1.87A.89.89,0,0,0,154.56,95.66Z" transform="translate(-0.07 -0.39)"></path><path class="cls-3" d="M78,.43v0l0,0,0,0v0L39.57,39.15H49.68V62.87s2.29,4.94,10,5.3c0,0,6.74.72,9.63-5.54V39.71a4.53,4.53,0,1,0-3.61.11V61s-5.42,6.74-12.16,0V34.46H50.65L78,6.75l27.26,27.71h-2.89V61c-6.74,6.74-12.16,0-12.16,0V39.84a4.54,4.54,0,1,0-3.61-.17v23c2.89,6.26,9.63,5.54,9.63,5.54,7.71-.36,9.64-5.3,9.64-5.3V39.15h10.47Z" transform="translate(-0.07 -0.39)"></path><path class="cls-4" d="M78,37.44a4.53,4.53,0,0,0-1.9,8.65V67h3.73V46.13A4.54,4.54,0,0,0,78,37.44Z" transform="translate(-0.07 -0.39)"></path></svg> 